<svg xmlns="http://www.w3.org/2000/svg" viewBox="0 0 1200 675" width="1200" height="675" role="img" aria-label="코오롱그룹에 무슨 일이 있었나">
<defs>
  <linearGradient id="g" x1="0" y1="0" x2="0" y2="1">
    <stop offset="0" stop-color="#d0453c" stop-opacity="0.16"/>
    <stop offset="1" stop-color="#d0453c" stop-opacity="0.02"/>
  </linearGradient>
</defs>
<style>
  .bg{fill:#faf6f5} .blob{fill:#d0453c;opacity:0.10}
  .eye{fill:#b03a32;font:700 27px system-ui,-apple-system,"Segoe UI",sans-serif;letter-spacing:1px}
  .ttl{fill:#1b1d20;font:800 62px system-ui,-apple-system,"Segoe UI",sans-serif;letter-spacing:-1.5px}
  .brand{fill:#8a8f8b;font:600 24px system-ui,sans-serif}
  .tkr{fill:#b03a32;font:700 26px system-ui,sans-serif;font-variant-numeric:tabular-nums}
  .tkrbox{fill:none;stroke:#d0453c;stroke-width:2}
  .line{fill:none;stroke:#d0453c;stroke-width:4;stroke-linejoin:round;stroke-linecap:round}
</style>
<rect class="bg" width="1200" height="675"/>
<circle class="blob" cx="1040" cy="130" r="250"/>
<path d="M0 420 L150 442 L300 415 L450 458 L600 436 L750 484 L900 522 L1050 600 L1200 652 L1200 675 L0 675 Z" fill="url(#g)"/>
<path d="M0 420 L150 442 L300 415 L450 458 L600 436 L750 484 L900 522 L1050 600 L1200 652" class="line"/>
<text x="80" y="132" class="eye">종목 분석 · 바이오</text>
<text x="80" y="292" class="ttl">코오롱그룹에</text><text x="80" y="374" class="ttl">무슨 일이 있었나</text>
<rect class="tkrbox" x="80" y="556" width="160" height="44" rx="22"/>
<text x="104" y="585" class="tkr">950160</text>
<text x="1120" y="620" text-anchor="end" class="brand">아웃베스트의 투자로그</text>
</svg>