<svg xmlns="http://www.w3.org/2000/svg" viewBox="0 0 1200 675" width="1200" height="675" role="img" aria-label="ADR +13.75%, 괴리는 방향을 말하지 않는다">
<defs>
  <linearGradient id="g" x1="0" y1="0" x2="0" y2="1">
    <stop offset="0" stop-color="#3fa05e" stop-opacity="0.16"/>
    <stop offset="1" stop-color="#3fa05e" stop-opacity="0.02"/>
  </linearGradient>
</defs>
<style>
  .bg{fill:#f5f8f6} .blob{fill:#3fa05e;opacity:0.10}
  .eye{fill:#2f8f57;font:700 27px system-ui,-apple-system,"Segoe UI",sans-serif;letter-spacing:1px}
  .ttl{fill:#1b1d20;font:800 62px system-ui,-apple-system,"Segoe UI",sans-serif;letter-spacing:-1.5px}
  .brand{fill:#8a8f8b;font:600 24px system-ui,sans-serif}
  .tkr{fill:#2f8f57;font:700 26px system-ui,sans-serif;font-variant-numeric:tabular-nums}
  .tkrbox{fill:none;stroke:#3fa05e;stroke-width:2}
  .line{fill:none;stroke:#3fa05e;stroke-width:4;stroke-linejoin:round;stroke-linecap:round}
</style>
<rect class="bg" width="1200" height="675"/>
<circle class="blob" cx="1040" cy="130" r="250"/>
<path d="M0 540 L150 500 L300 520 L450 440 L600 470 L750 380 L900 410 L1050 300 L1200 260 L1200 675 L0 675 Z" fill="url(#g)"/>
<path d="M0 540 L150 500 L300 520 L450 440 L600 470 L750 380 L900 410 L1050 300 L1200 260" class="line"/>
<text x="80" y="132" class="eye">시황 · ADR</text>
<text x="80" y="292" class="ttl">ADR +13.75%,</text><text x="80" y="374" class="ttl">괴리는 방향을 말하지 않는다</text>
<rect class="tkrbox" x="80" y="556" width="160" height="44" rx="22"/>
<text x="104" y="585" class="tkr">000660</text>
<text x="1120" y="620" text-anchor="end" class="brand">아웃베스트의 투자로그</text>
</svg>