<svg xmlns="http://www.w3.org/2000/svg" viewBox="0 0 760 340" width="760" height="340" role="img" aria-label="반도체 소부장 4개사 영업이익률 비교 막대그래프">
<title>반도체 소부장 4개사 영업이익률 비교 막대그래프</title><desc>2026년 예상 영업이익률은 HPSP 54.8%, 한미반도체 약 50%, 리노공업 49.2%, ISC 25.7%로 HPSP가 가장 높다.</desc>
<style>
  :root{
    --surface:#fcfcfb; --ink:#0b0b0b; --sub:#52514e; --muted:#898781;
    --grid:#e1e0d9; --axis:#c3c2b7; --blue:#2a78d6; --orange:#eb6834; --aqua:#1baf7a;
    --red:#e34948; --green:#008300; --mute:#b7d3f6;
  }
  @media (prefers-color-scheme:dark){
    :root{ --surface:#1a1a19; --ink:#ffffff; --sub:#c3c2b7; --muted:#898781;
      --grid:#2c2c2a; --axis:#383835; --blue:#3987e5; --orange:#d95926; --aqua:#199e70;
      --red:#e66767; --green:#31a531; --mute:#2f4b6e; }
  }
  .bg{fill:var(--surface)}
  .title{fill:var(--ink);font:700 20px system-ui,-apple-system,"Segoe UI",sans-serif}
  .sub{fill:var(--sub);font:400 13px system-ui,sans-serif}
  .lbl{fill:var(--ink);font:600 14px system-ui,sans-serif}
  .ax{fill:var(--muted);font:500 13px system-ui,sans-serif;font-variant-numeric:tabular-nums}
  .val{fill:var(--ink);font:700 15px system-ui,sans-serif;font-variant-numeric:tabular-nums}
  .grid{stroke:var(--grid);stroke-width:1}
  .base{stroke:var(--axis);stroke-width:1.5}
  .s-blue{fill:var(--blue)} .s-orange{fill:var(--orange)} .s-aqua{fill:var(--aqua)}
  .s-red{fill:var(--red)} .s-green{fill:var(--green)} .s-mute{fill:var(--mute)}
  .refline{stroke:var(--orange);stroke-width:1.5;stroke-dasharray:5 4}
  .nowline{stroke:var(--ink);stroke-width:1.5;stroke-dasharray:4 3}
</style>
<rect class="bg" x="0" y="0" width="760" height="340" rx="14"/>
<text class="title" x="40" y="34">소부장 영업이익률 — 수익성 대장은 HPSP</text><text class="sub" x="40" y="56">2026년 예상 영업이익률(%). '대장'과 '가장 수익성 좋은 회사'는 다르다</text><line class="grid" x1="130" y1="80" x2="130" y2="272"/><text class="ax" x="130" y="292" text-anchor="middle">0%</text><line class="grid" x1="316.6666666666667" y1="80" x2="316.6666666666667" y2="272"/><text class="ax" x="316.6666666666667" y="292" text-anchor="middle">20%</text><line class="grid" x1="503.33333333333337" y1="80" x2="503.33333333333337" y2="272"/><text class="ax" x="503.33333333333337" y="292" text-anchor="middle">40%</text><line class="grid" x1="690" y1="80" x2="690" y2="272"/><text class="ax" x="690" y="292" text-anchor="middle">60%</text><path class="s-aqua" d="M130 88 h507.4666666666667 q4 0 4 4 v26 q0 4 -4 4 h507.4666666666667 Z"/><text class="lbl" x="118" y="110" text-anchor="end">HPSP</text><text class="val" x="651.4666666666667" y="110">54.8%</text><path class="s-mute" d="M130 138 h462.6666666666667 q4 0 4 4 v26 q0 4 -4 4 h462.6666666666667 Z"/><text class="lbl" x="118" y="160" text-anchor="end">한미반도체</text><text class="val" x="606.6666666666667" y="160">약 50%</text><path class="s-mute" d="M130 188 h455.20000000000005 q4 0 4 4 v26 q0 4 -4 4 h455.20000000000005 Z"/><text class="lbl" x="118" y="210" text-anchor="end">리노공업</text><text class="val" x="599.2" y="210">49.2%</text><path class="s-mute" d="M130 238 h235.86666666666667 q4 0 4 4 v26 q0 4 -4 4 h235.86666666666667 Z"/><text class="lbl" x="118" y="260" text-anchor="end">ISC</text><text class="val" x="379.8666666666667" y="260">25.7%</text>
</svg>